HIERARCHY
ROOT joint_Root
{
	OFFSET 0.0 0.0 0.0
	CHANNELS 6 Xposition Yposition Zposition Zrotation Xrotation Yrotation 
	JOINT Hips
	{
		OFFSET -17.1583 93.1646 452.98
		CHANNELS 6 Xposition Yposition Zposition Zrotation Xrotation Yrotation 
		JOINT Spine
		{
			OFFSET 15.7357 0.0 0.0
			CHANNELS 6 Xposition Yposition Zposition Zrotation Xrotation Yrotation 
			JOINT Chest
			{
				OFFSET 8.98455 -0.406207 0.0
				CHANNELS 6 Xposition Yposition Zposition Zrotation Xrotation Yrotation 
				JOINT Neck
				{
					OFFSET 16.3773 0.0 0.0
					CHANNELS 6 Xposition Yposition Zposition Zrotation Xrotation Yrotation 
					JOINT Head
					{
						OFFSET 6.45672 0.0 0.0
						CHANNELS 6 Xposition Yposition Zposition Zrotation Xrotation Yrotation 
						End Site
						{
							OFFSET 0.0 0.0 0.0
						}
					}
				}
				JOINT Shoulder_L
				{
					OFFSET 12.9942 -0.242716 4.98039
					CHANNELS 6 Xposition Yposition Zposition Zrotation Xrotation Yrotation 
					JOINT UpperArm_L
					{
						OFFSET 5.34809 0.0 0.0
						CHANNELS 6 Xposition Yposition Zposition Zrotation Xrotation Yrotation 
						JOINT LowerArm_L
						{
							OFFSET 24.3286 1.87007e-05 0.0
							CHANNELS 6 Xposition Yposition Zposition Zrotation Xrotation Yrotation 
							JOINT Hand_L
							{
								OFFSET 22.2916 0.0 0.0
								CHANNELS 6 Xposition Yposition Zposition Zrotation Xrotation Yrotation 
								End Site
								{
									OFFSET 0.0 0.0 0.0
								}
							}
						}
					}
				}
				JOINT Shoulder_R
				{
					OFFSET 12.9945 -0.242716 -4.98039
					CHANNELS 6 Xposition Yposition Zposition Zrotation Xrotation Yrotation 
					JOINT UpperArm_R
					{
						OFFSET -5.34813 0.0 0.0
						CHANNELS 6 Xposition Yposition Zposition Zrotation Xrotation Yrotation 
						JOINT LowerArm_R
						{
							OFFSET -24.3289 0.000322201 0.0
							CHANNELS 6 Xposition Yposition Zposition Zrotation Xrotation Yrotation 
							JOINT Hand_R
							{
								OFFSET -22.2915 -0.000108084 0.0
								CHANNELS 6 Xposition Yposition Zposition Zrotation Xrotation Yrotation 
								End Site
								{
									OFFSET 0.0 0.0 0.0
								}
							}
						}
					}
				}
			}
		}
		JOINT UpperLeg_L
		{
			OFFSET -2.19248 -6.46944 0.0
			CHANNELS 6 Xposition Yposition Zposition Zrotation Xrotation Yrotation 
			JOINT LowerLeg_L
			{
				OFFSET 39.0811 0.0 -1.23785e-05
				CHANNELS 6 Xposition Yposition Zposition Zrotation Xrotation Yrotation 
				JOINT Foot_L
				{
					OFFSET 40.9854 0.0 -1.26872e-05
					CHANNELS 6 Xposition Yposition Zposition Zrotation Xrotation Yrotation 
					JOINT Toes_L
					{
						OFFSET 11.7543 0.0 0.0
						CHANNELS 6 Xposition Yposition Zposition Zrotation Xrotation Yrotation 
						End Site
						{
							OFFSET 0.0 0.0 0.0
						}
					}
				}
			}
		}
		JOINT UpperLeg_R
		{
			OFFSET -2.19251 6.46944 0.0
			CHANNELS 6 Xposition Yposition Zposition Zrotation Xrotation Yrotation 
			JOINT LowerLeg_R
			{
				OFFSET -39.0811 -0.00228153 -0.0401928
				CHANNELS 6 Xposition Yposition Zposition Zrotation Xrotation Yrotation 
				JOINT Foot_R
				{
					OFFSET -40.9854 0.0 0.0
					CHANNELS 6 Xposition Yposition Zposition Zrotation Xrotation Yrotation 
					JOINT Toes_R
					{
						OFFSET -11.7543 0.0 0.0
						CHANNELS 6 Xposition Yposition Zposition Zrotation Xrotation Yrotation 
						End Site
						{
							OFFSET 0.0 0.0 0.0
						}
					}
				}
			}
		}
	}
}
MOTION
Frames:	8
Frame Time:	0.0333333
0.000000 0.000000 0.000000 0.000000 0.000000 -0.000000 -4.205080 92.162700 -1.743840 84.011200 -2.848780 2.402560 15.735700 0.000005 -0.000001 51.569600 87.855400 -48.450600 8.984550 -0.406207 -0.000000 -4.319910 -2.992530 6.129890 16.377300 -0.000001 -0.000001 11.150200 3.745530 6.524890 6.456720 -0.000001 -0.000000 8.741770 9.063950 14.811700 12.994200 -0.242716 4.980390 -91.853700 5.666260 -71.851100 5.348090 -0.000007 -0.000001 -75.561800 33.164800 2.648880 24.328600 0.000019 0.000005 12.866700 27.689500 -26.177000 22.291600 -0.000001 0.000005 -3.402760 4.955470 8.252480 12.994500 -0.242716 -4.980390 87.700800 6.201610 -69.611200 -5.348130 -0.000001 -0.000004 -69.137900 9.687390 -11.193700 -24.328900 0.000322 -0.000009 19.744400 -23.455400 -137.957000 -22.291500 -0.000108 -0.000004 56.187800 5.660360 -16.099900 -2.192480 -6.469440 -0.000000 -171.598000 1.593690 -5.226440 39.081100 -0.000007 -0.000012 0.372628 -0.720273 27.355300 40.985400 -0.000006 -0.000013 -0.562220 4.664620 -75.681300 11.754300 -0.000000 0.000003 0.000970 0.149285 -10.522600 -2.192510 6.469440 -0.000001 -169.468000 5.308460 -178.538000 -39.081100 -0.002282 -0.040193 0.068304 -0.242758 14.984000 -40.985400 0.000008 0.000006 3.598330 2.815040 -69.733000 -11.754300 -0.000006 -0.000006 -0.010177 0.272622 -5.497100
0.000000 0.000000 0.000000 0.000000 0.000000 -0.000000 -4.229480 92.170700 -1.762600 84.013500 -2.857500 2.330830 15.735700 0.000005 -0.000001 52.095300 87.866000 -48.987700 8.984550 -0.406207 -0.000000 -4.313820 -2.947240 6.109020 16.377300 -0.000001 -0.000001 11.135200 3.775370 6.495420 6.456720 -0.000001 -0.000000 8.793870 9.130530 14.770700 12.994200 -0.242716 4.980390 -91.855800 5.668350 -71.838200 5.348090 -0.000007 -0.000001 -75.669400 33.019300 2.799510 24.328600 0.000019 0.000005 12.859900 27.788500 -26.090000 22.291600 -0.000001 0.000005 -3.516270 4.955070 8.260640 12.994500 -0.242716 -4.980390 87.711500 6.173800 -69.615100 -5.348130 -0.000001 -0.000004 -69.141400 9.573860 -11.183800 -24.328900 0.000322 -0.000009 19.686400 -23.373700 -137.954000 -22.291500 -0.000108 -0.000004 56.162900 5.659230 -15.971300 -2.192480 -6.469440 -0.000000 -171.590000 1.597150 -5.287890 39.081100 -0.000007 -0.000012 0.376185 -0.728301 27.318400 40.985400 -0.000006 -0.000013 -0.591085 4.625920 -75.679500 11.754300 -0.000000 0.000003 0.001034 0.147882 -10.579500 -2.192510 6.469440 -0.000001 -169.477000 5.435690 -178.599000 -39.081100 -0.002282 -0.040193 0.066203 -0.235667 14.937700 -40.985400 0.000008 0.000006 3.553440 2.991680 -69.675600 -11.754300 -0.000006 -0.000006 -0.010107 0.272100 -5.518460
0.000000 0.000000 0.000000 0.000000 0.000000 -0.000000 -4.258920 92.168200 -1.778660 84.036700 -2.803540 2.315870 15.735700 0.000005 -0.000001 52.218600 87.858000 -49.134000 8.984550 -0.406207 -0.000000 -4.296220 -2.946920 6.063470 16.377300 -0.000001 -0.000001 11.162500 3.825110 6.452840 6.456720 -0.000001 -0.000000 8.787700 9.171110 14.781000 12.994200 -0.242716 4.980390 -91.848300 5.643540 -71.832400 5.348090 -0.000007 -0.000001 -75.802500 32.856800 3.007750 24.328600 0.000019 0.000005 12.839600 27.833000 -26.019900 22.291600 -0.000001 0.000005 -3.734430 4.953660 8.289730 12.994500 -0.242716 -4.980390 87.701600 6.194440 -69.596300 -5.348130 -0.000001 -0.000004 -69.084500 9.402570 -11.133400 -24.328900 0.000322 -0.000009 19.667400 -23.312700 -137.913000 -22.291500 -0.000108 -0.000004 56.176800 5.660310 -16.094400 -2.192480 -6.469440 -0.000000 -171.588000 1.620570 -5.324570 39.081100 -0.000007 -0.000012 0.374787 -0.725272 27.328800 40.985400 -0.000006 -0.000013 -0.605470 4.662850 -75.725100 11.754300 -0.000000 0.000003 0.000883 0.151132 -10.447600 -2.192510 6.469440 -0.000001 -169.494000 5.655860 -178.617000 -39.081100 -0.002282 -0.040193 0.068655 -0.245028 14.927800 -40.985400 0.000008 0.000006 3.730490 3.120610 -69.759200 -11.754300 -0.000006 -0.000006 -0.010429 0.274487 -5.420820
0.000000 0.000000 0.000000 0.000000 0.000000 -0.000000 -4.285370 92.165200 -1.778240 84.020300 -2.807120 2.302510 15.735700 0.000005 -0.000001 52.572400 87.845700 -49.490600 8.984550 -0.406207 -0.000000 -4.260660 -2.939800 6.058880 16.377300 -0.000001 -0.000001 11.191900 3.860680 6.427880 6.456720 -0.000001 -0.000000 8.827800 9.240950 14.734300 12.994200 -0.242716 4.980390 -91.863700 5.681920 -71.806100 5.348090 -0.000007 -0.000001 -75.858800 32.805100 3.165050 24.328600 0.000019 0.000005 12.744200 27.851500 -25.832400 22.291600 -0.000001 0.000005 -3.773130 4.954010 8.282480 12.994500 -0.242716 -4.980390 87.710500 6.173830 -69.607500 -5.348130 -0.000001 -0.000004 -69.064700 9.293920 -11.116100 -24.328900 0.000322 -0.000009 19.609900 -23.208500 -137.883000 -22.291500 -0.000108 -0.000004 56.206100 5.661370 -16.221900 -2.192480 -6.469440 -0.000000 -171.536000 1.605860 -5.351200 39.081100 -0.000007 -0.000012 0.367047 -0.710530 27.321000 40.985400 -0.000006 -0.000013 -0.620083 4.695010 -75.547400 11.754300 -0.000000 0.000003 0.001135 0.145624 -10.671200 -2.192510 6.469440 -0.000001 -169.491000 5.830380 -178.633000 -39.081100 -0.002282 -0.040193 0.067233 -0.239765 14.923600 -40.985400 0.000008 0.000006 3.713920 3.288370 -69.685100 -11.754300 -0.000006 -0.000006 -0.010210 0.272865 -5.487190
0.000000 0.000000 0.000000 0.000000 0.000000 -0.000000 -4.299600 92.178900 -1.771110 84.058400 -2.804620 2.327820 15.735700 0.000005 -0.000001 53.092700 87.827900 -50.039200 8.984550 -0.406207 -0.000000 -4.209800 -2.925670 6.003840 16.377300 -0.000001 -0.000001 11.224600 3.883760 6.406390 6.456720 -0.000001 -0.000000 8.822190 9.228790 14.739000 12.994200 -0.242716 4.980390 -91.863000 5.676450 -71.796500 5.348090 -0.000007 -0.000001 -75.948000 32.693700 3.311510 24.328600 0.000019 0.000005 12.691500 27.927700 -25.679800 22.291600 -0.000001 0.000005 -3.789090 4.955350 8.254940 12.994500 -0.242716 -4.980390 87.699700 6.205200 -69.613100 -5.348130 -0.000001 -0.000004 -69.022200 9.069390 -11.089600 -24.328900 0.000322 -0.000009 19.441700 -23.007300 -137.914000 -22.291500 -0.000108 -0.000004 56.039200 5.662240 -16.324900 -2.192480 -6.469440 -0.000000 -171.568000 1.573880 -5.258400 39.081100 -0.000007 -0.000012 0.368186 -0.715655 27.225600 40.985400 -0.000006 -0.000013 -0.621900 4.727710 -75.649300 11.754300 -0.000000 0.000003 0.000902 0.150726 -10.464100 -2.192510 6.469440 -0.000001 -169.555000 5.820120 -178.592000 -39.081100 -0.002282 -0.040193 0.064906 -0.231277 14.908700 -40.985400 0.000008 0.000006 3.529520 3.355750 -69.681800 -11.754300 -0.000006 -0.000006 -0.010316 0.273650 -5.455060
0.000000 0.000000 0.000000 0.000000 0.000000 -0.000000 -4.312970 92.173000 -1.774620 84.061300 -2.750550 2.302740 15.735700 0.000005 -0.000001 52.966500 87.824000 -49.933700 8.984550 -0.406207 -0.000000 -4.209780 -2.935790 5.962070 16.377300 -0.000001 -0.000001 11.276900 3.858490 6.392460 6.456720 -0.000001 -0.000000 8.801610 9.222570 14.734000 12.994200 -0.242716 4.980390 -91.865800 5.668580 -71.747400 5.348090 -0.000007 -0.000001 -75.980700 32.658100 3.405320 24.328600 0.000019 0.000005 12.640500 28.018600 -25.520400 22.291600 -0.000001 0.000005 -3.804190 4.959270 8.173900 12.994500 -0.242716 -4.980390 87.693400 6.210740 -69.578800 -5.348130 -0.000001 -0.000004 -68.972800 8.864000 -10.988800 -24.328900 0.000322 -0.000009 19.425500 -22.949800 -137.872000 -22.291500 -0.000108 -0.000004 55.967900 5.662220 -16.321900 -2.192480 -6.469440 -0.000000 -171.557000 1.611710 -5.325130 39.081100 -0.000007 -0.000012 0.368473 -0.715293 27.255500 40.985400 -0.000006 -0.000013 -0.629408 4.746750 -75.582000 11.754300 -0.000000 0.000003 0.000977 0.149124 -10.529100 -2.192510 6.469440 -0.000001 -169.518000 5.793950 -178.626000 -39.081100 -0.002282 -0.040193 0.067385 -0.240797 14.896400 -40.985400 0.000008 0.000006 3.672220 3.248610 -69.677200 -11.754300 -0.000006 -0.000006 -0.010360 0.273979 -5.441620
0.000000 0.000000 0.000000 0.000000 0.000000 -0.000000 -4.298500 92.186700 -1.783220 84.134300 -2.675320 2.275450 15.735700 0.000005 -0.000001 52.979400 87.825900 -49.979700 8.984550 -0.406207 -0.000000 -4.213340 -2.929400 5.895990 16.377300 -0.000001 -0.000001 11.268300 3.845900 6.347990 6.456720 -0.000001 -0.000000 8.785990 9.157360 14.765800 12.994200 -0.242716 4.980390 -91.871500 5.688610 -71.755300 5.348090 -0.000007 -0.000001 -76.047000 32.528600 3.555340 24.328600 0.000019 0.000005 12.674700 28.103900 -25.520300 22.291600 -0.000001 0.000005 -3.795940 4.956370 8.233760 12.994500 -0.242716 -4.980390 87.686900 6.223240 -69.563300 -5.348130 -0.000001 -0.000004 -68.917000 8.626590 -10.927000 -24.328900 0.000322 -0.000009 19.770500 -23.266900 -137.699000 -22.291500 -0.000108 -0.000004 56.126400 5.656790 -15.702500 -2.192480 -6.469440 -0.000000 -171.658000 1.719320 -5.317150 39.081100 -0.000007 -0.000012 0.368283 -0.718035 27.154400 40.985400 -0.000006 -0.000013 -0.629392 4.690760 -75.607200 11.754300 -0.000000 0.000003 0.000917 0.150409 -10.477000 -2.192510 6.469440 -0.000001 -169.602000 5.854030 -178.646000 -39.081100 -0.002282 -0.040193 0.067559 -0.242111 14.857600 -40.985400 0.000008 0.000006 3.667240 3.237400 -69.684600 -11.754300 -0.000006 -0.000006 -0.010159 0.272487 -5.502630
0.000000 0.000000 0.000000 0.000000 0.000000 -0.000000 -4.282460 92.185400 -1.771450 84.153500 -2.612940 2.266260 15.735700 0.000005 -0.000001 53.163800 87.811400 -50.184500 8.984550 -0.406207 -0.000000 -4.182130 -2.932760 5.855800 16.377300 -0.000001 -0.000001 11.264600 3.834110 6.359440 6.456720 -0.000001 -0.000000 8.699660 9.142570 14.732500 12.994200 -0.242716 4.980390 -91.883800 5.709050 -71.704700 5.348090 -0.000007 -0.000001 -76.046500 32.303000 3.602070 24.328600 0.000019 0.000005 12.622300 27.984500 -25.512100 22.291600 -0.000001 0.000005 -3.959620 4.956150 8.238380 12.994500 -0.242716 -4.980390 87.673400 6.256040 -69.552600 -5.348130 -0.000001 -0.000004 -68.855700 8.295620 -10.888900 -24.328900 0.000322 -0.000009 19.674300 -23.099100 -137.655000 -22.291500 -0.000108 -0.000004 56.187900 5.657030 -15.729500 -2.192480 -6.469440 -0.000000 -171.706000 1.860430 -5.343180 39.081100 -0.000007 -0.000012 0.367643 -0.717002 27.147400 40.985400 -0.000006 -0.000013 -0.633555 4.603270 -75.523400 11.754300 -0.000000 0.000003 0.000964 0.149413 -10.517400 -2.192510 6.469440 -0.000001 -169.622000 5.874950 -178.651000 -39.081100 -0.002282 -0.040193 0.068906 -0.247414 14.844500 -40.985400 0.000008 0.000006 3.752300 3.183680 -69.682400 -11.754300 -0.000006 -0.000006 -0.010347 0.273877 -5.445790
